<svg xmlns="http://www.w3.org/2000/svg" viewBox="0 0 640 360" fill="none" role="img" aria-hidden="true">
  <rect width="640" height="360" fill="#071018"/>
  <rect width="640" height="360" fill="url(#bg)" opacity="0.95"/>
  <defs>
    <linearGradient id="bg" x1="0" y1="0" x2="640" y2="360" gradientUnits="userSpaceOnUse">
      <stop stop-color="#0c4a6e"/>
      <stop offset="0.45" stop-color="#0f172a"/>
      <stop offset="1" stop-color="#134e4a"/>
    </linearGradient>
    <linearGradient id="card" x1="56" y1="64" x2="248" y2="296" gradientUnits="userSpaceOnUse">
      <stop stop-color="#38bdf8"/>
      <stop offset="1" stop-color="#0f766e"/>
    </linearGradient>
  </defs>
  <rect x="48" y="56" width="220" height="248" rx="18" fill="url(#card)" opacity="0.96"/>
  <rect x="72" y="80" width="172" height="28" rx="8" fill="rgba(255,255,255,0.22)"/>
  <circle cx="92" cy="94" r="4" fill="#e0f2fe"/>
  <circle cx="112" cy="94" r="4" fill="#e0f2fe"/>
  <circle cx="132" cy="94" r="4" fill="#e0f2fe"/>
  <rect x="72" y="122" width="120" height="10" rx="5" fill="rgba(255,255,255,0.85)"/>
  <rect x="72" y="142" width="148" height="8" rx="4" fill="rgba(255,255,255,0.35)"/>
  <rect x="72" y="158" width="132" height="8" rx="4" fill="rgba(255,255,255,0.35)"/>
  <rect x="72" y="174" width="140" height="8" rx="4" fill="rgba(255,255,255,0.35)"/>
  <rect x="72" y="198" width="18" height="18" rx="5" fill="#14b8a6"/>
  <path d="M76.5 207.5l3 3 7-8" stroke="#fff" stroke-width="2.2" stroke-linecap="round" stroke-linejoin="round"/>
  <rect x="96" y="200" width="96" height="8" rx="4" fill="rgba(255,255,255,0.55)"/>
  <rect x="72" y="226" width="18" height="18" rx="5" fill="rgba(255,255,255,0.18)" stroke="rgba(255,255,255,0.45)" stroke-width="1.5"/>
  <rect x="96" y="230" width="88" height="8" rx="4" fill="rgba(255,255,255,0.35)"/>
  <rect x="72" y="254" width="18" height="18" rx="5" fill="rgba(255,255,255,0.18)" stroke="rgba(255,255,255,0.45)" stroke-width="1.5"/>
  <rect x="96" y="258" width="104" height="8" rx="4" fill="rgba(255,255,255,0.35)"/>
  <rect x="300" y="72" width="168" height="34" rx="999px" fill="rgba(251,191,36,0.14)" stroke="rgba(251,191,36,0.45)" stroke-width="1.5"/>
  <text x="384" y="94" text-anchor="middle" fill="#fde68a" font-family="Segoe UI,Arial,sans-serif" font-size="15" font-weight="800" letter-spacing="0.12em">PRÓXIMAMENTE</text>
  <text x="300" y="142" fill="#f8fafc" font-family="Segoe UI,Arial,sans-serif" font-size="34" font-weight="800">Agenda Operativa</text>
  <text x="300" y="178" fill="#94a3b8" font-family="Segoe UI,Arial,sans-serif" font-size="17" font-weight="600">Tareas por puesto · seguimiento en vivo</text>
  <text x="300" y="214" fill="#cbd5e1" font-family="Segoe UI,Arial,sans-serif" font-size="15">Organiza el día · mide productividad · trabaja en equipo</text>
  <text x="300" y="242" fill="#cbd5e1" font-family="Segoe UI,Arial,sans-serif" font-size="15">Cada usuario verá solo la agenda de su área</text>
  <rect x="300" y="268" width="292" height="36" rx="10" fill="rgba(56,189,248,0.12)" stroke="rgba(56,189,248,0.35)"/>
  <text x="446" y="291" text-anchor="middle" fill="#7dd3fc" font-family="Segoe UI,Arial,sans-serif" font-size="14" font-weight="700">Almacén Central DC · 300-001</text>
</svg>
