<svg xmlns="http://www.w3.org/2000/svg" viewBox="0 0 960 480" fill="none" role="img" aria-hidden="true">
  <rect width="960" height="480" fill="#071018"/>
  <rect width="960" height="480" fill="url(#bg)" opacity="0.96"/>
  <defs>
    <linearGradient id="bg" x1="0" y1="0" x2="960" y2="480" gradientUnits="userSpaceOnUse">
      <stop stop-color="#0c4a6e"/>
      <stop offset="0.42" stop-color="#0f172a"/>
      <stop offset="1" stop-color="#134e4a"/>
    </linearGradient>
    <linearGradient id="card" x1="72" y1="72" x2="360" y2="408" gradientUnits="userSpaceOnUse">
      <stop stop-color="#38bdf8"/>
      <stop offset="1" stop-color="#0f766e"/>
    </linearGradient>
  </defs>
  <rect x="56" y="56" width="320" height="368" rx="22" fill="url(#card)" opacity="0.96"/>
  <rect x="88" y="88" width="256" height="36" rx="10" fill="rgba(255,255,255,0.22)"/>
  <circle cx="112" cy="106" r="5" fill="#e0f2fe"/>
  <circle cx="142" cy="106" r="5" fill="#e0f2fe"/>
  <circle cx="172" cy="106" r="5" fill="#e0f2fe"/>
  <rect x="88" y="148" width="176" height="12" rx="6" fill="rgba(255,255,255,0.88)"/>
  <rect x="88" y="174" width="220" height="10" rx="5" fill="rgba(255,255,255,0.35)"/>
  <rect x="88" y="196" width="198" height="10" rx="5" fill="rgba(255,255,255,0.35)"/>
  <rect x="88" y="218" width="210" height="10" rx="5" fill="rgba(255,255,255,0.35)"/>
  <rect x="88" y="248" width="26" height="26" rx="7" fill="#14b8a6"/>
  <path d="M95 261l4 4 10-12" stroke="#fff" stroke-width="2.6" stroke-linecap="round" stroke-linejoin="round"/>
  <rect x="124" y="252" width="144" height="10" rx="5" fill="rgba(255,255,255,0.58)"/>
  <rect x="88" y="286" width="26" height="26" rx="7" fill="rgba(255,255,255,0.16)" stroke="rgba(255,255,255,0.45)" stroke-width="1.5"/>
  <rect x="124" y="292" width="132" height="10" rx="5" fill="rgba(255,255,255,0.35)"/>
  <rect x="88" y="324" width="26" height="26" rx="7" fill="rgba(255,255,255,0.16)" stroke="rgba(255,255,255,0.45)" stroke-width="1.5"/>
  <rect x="124" y="330" width="156" height="10" rx="5" fill="rgba(255,255,255,0.35)"/>
  <rect x="88" y="362" width="26" height="26" rx="7" fill="rgba(255,255,255,0.16)" stroke="rgba(255,255,255,0.45)" stroke-width="1.5"/>
  <rect x="124" y="368" width="120" height="10" rx="5" fill="rgba(255,255,255,0.35)"/>
  <rect x="430" y="72" width="220" height="42" rx="999" fill="rgba(251,191,36,0.14)" stroke="rgba(251,191,36,0.45)" stroke-width="1.5"/>
  <text x="540" y="100" text-anchor="middle" fill="#fde68a" font-family="Segoe UI,Arial,sans-serif" font-size="18" font-weight="800" letter-spacing="0.14em">PRÓXIMAMENTE</text>
  <text x="430" y="168" fill="#f8fafc" font-family="Segoe UI,Arial,sans-serif" font-size="46" font-weight="800">Agenda Operativa</text>
  <text x="430" y="214" fill="#94a3b8" font-family="Segoe UI,Arial,sans-serif" font-size="22" font-weight="600">Tareas por puesto · seguimiento en vivo</text>
  <text x="430" y="262" fill="#cbd5e1" font-family="Segoe UI,Arial,sans-serif" font-size="19">Organiza el día · mide productividad · trabaja en equipo</text>
  <text x="430" y="296" fill="#cbd5e1" font-family="Segoe UI,Arial,sans-serif" font-size="19">Cada usuario verá solo la agenda de su área</text>
  <rect x="430" y="332" width="474" height="44" rx="12" fill="rgba(56,189,248,0.12)" stroke="rgba(56,189,248,0.35)"/>
  <text x="667" y="360" text-anchor="middle" fill="#7dd3fc" font-family="Segoe UI,Arial,sans-serif" font-size="17" font-weight="700">Almacén Central DC · 300-001</text>
</svg>
