<svg xmlns="http://www.w3.org/2000/svg" viewBox="0 0 128 128" fill="none" aria-hidden="true">
  <defs>
    <linearGradient id="cBody" x1="0%" y1="0%" x2="100%" y2="100%">
      <stop offset="0%" stop-color="#2563eb"/>
      <stop offset="45%" stop-color="#1d4ed8"/>
      <stop offset="100%" stop-color="#1e3a8a"/>
    </linearGradient>
    <linearGradient id="cTop" x1="0%" y1="0%" x2="0%" y2="100%">
      <stop offset="0%" stop-color="#60a5fa"/>
      <stop offset="100%" stop-color="#2563eb"/>
    </linearGradient>
    <linearGradient id="cSide" x1="0%" y1="0%" x2="100%" y2="0%">
      <stop offset="0%" stop-color="#1e40af"/>
      <stop offset="100%" stop-color="#172554"/>
    </linearGradient>
    <filter id="cShadow" x="-20%" y="-20%" width="140%" height="140%">
      <feDropShadow dx="0" dy="4" stdDeviation="4" flood-color="#0f172a" flood-opacity="0.35"/>
    </filter>
  </defs>
  <ellipse cx="64" cy="112" rx="42" ry="8" fill="#000" opacity="0.12"/>
  <g filter="url(#cShadow)">
    <!-- lado derecho -->
    <path d="M88 34 L108 44 L108 88 L88 98 Z" fill="url(#cSide)"/>
    <!-- techo -->
    <path d="M20 34 L40 24 L108 44 L88 34 Z" fill="url(#cTop)"/>
    <!-- frente -->
    <path d="M20 34 L88 34 L88 98 L20 98 Z" fill="url(#cBody)"/>
    <!-- ondulaciones corrugado -->
    <path d="M26 42v48M34 42v48M42 42v48M50 42v48M58 42v48M66 42v48M74 42v48M82 42v48" stroke="#93c5fd" stroke-width="1.2" opacity="0.55"/>
    <path d="M20 52h68M20 68h68M20 84h68" stroke="#1e3a8a" stroke-width="1" opacity="0.35"/>
    <!-- puerta -->
    <rect x="30" y="58" width="22" height="32" rx="1" fill="#0f172a" opacity="0.25" stroke="#bfdbfe" stroke-width="1"/>
    <path d="M41 58v32" stroke="#bfdbfe" stroke-width="1"/>
    <!-- bisagras -->
    <rect x="28" y="62" width="2" height="4" rx="0.5" fill="#cbd5e1"/>
    <rect x="28" y="78" width="2" height="4" rx="0.5" fill="#cbd5e1"/>
    <!-- ruedas -->
    <circle cx="34" cy="104" r="6" fill="#111827" stroke="#374151" stroke-width="1.5"/>
    <circle cx="34" cy="104" r="2.5" fill="#6b7280"/>
    <circle cx="74" cy="104" r="6" fill="#111827" stroke="#374151" stroke-width="1.5"/>
    <circle cx="74" cy="104" r="2.5" fill="#6b7280"/>
  </g>
</svg>
