<svg xmlns="http://www.w3.org/2000/svg" viewBox="0 0 800 800" role="img" aria-label="Inventario RF">
  <defs>
    <linearGradient id="bg" x1="0" y1="0" x2="1" y2="1">
      <stop offset="0%" stop-color="#1a2836"/>
      <stop offset="100%" stop-color="#0d1520"/>
    </linearGradient>
    <linearGradient id="gold" x1="0" y1="0" x2="0" y2="1">
      <stop offset="0%" stop-color="#C5A572"/>
      <stop offset="100%" stop-color="#8B6914"/>
    </linearGradient>
  </defs>
  <rect width="800" height="800" fill="url(#bg)"/>
  <!-- Estantes -->
  <g opacity="0.55" stroke="#5A6B7D" stroke-width="3">
    <line x1="80" y1="180" x2="720" y2="180"/>
    <line x1="80" y1="320" x2="720" y2="320"/>
    <line x1="80" y1="460" x2="720" y2="460"/>
    <line x1="120" y1="120" x2="120" y2="520"/>
    <line x1="680" y1="120" x2="680" y2="520"/>
  </g>
  <!-- Cajas -->
  <rect x="160" y="200" width="110" height="90" rx="6" fill="#2B5278" opacity="0.9"/>
  <rect x="310" y="200" width="110" height="90" rx="6" fill="#3949AB" opacity="0.85"/>
  <rect x="460" y="200" width="110" height="90" rx="6" fill="#2B5278" opacity="0.75"/>
  <rect x="200" y="340" width="130" height="95" rx="6" fill="#EF6C00" opacity="0.8"/>
  <rect x="380" y="340" width="130" height="95" rx="6" fill="#2B5278" opacity="0.8"/>
  <!-- Escįner RF -->
  <rect x="270" y="520" width="260" height="170" rx="22" fill="#15202B" stroke="url(#gold)" stroke-width="6"/>
  <rect x="300" y="555" width="200" height="70" rx="8" fill="#243447"/>
  <text x="400" y="605" text-anchor="middle" font-family="monospace" font-size="28" fill="#C5A572">®®®®</text>
  <rect x="330" y="645" width="140" height="16" rx="8" fill="#C5A572" opacity="0.7"/>
</svg>
